<svg xmlns="http://www.w3.org/2000/svg" width="300" height="300" viewBox="0 130 140 140">
<g fill="#000000" transform="translate(8.13,145.5) scale(1.09)">
<path d="m56.969 61.383 0.37891 2.5742c0.95703 6.4688-0.69922 13.047-4.5938 18.297-3.8984 5.25-9.7188 8.7344-16.188 9.6875-6.4688 0.95703-13.047-0.69922-18.297-4.5938-5.25-3.8984-8.7344-9.7188-9.6875-16.188l-4.2656-28.867c-0.089844-0.59375 0.10547-1.1992 0.51953-1.6328 0.41797-0.43359 1.0078-0.65625 1.6094-0.59375 13.266 1.3438 26.121-0.10547 38.551-4.4219l1.457-26.035c0.035156-0.60156 0.34375-1.1523 0.83594-1.4961 0.49609-0.34375 1.1211-0.4375 1.6953-0.25781 14.578 4.5664 29.363 5.4297 44.359 2.4805 0.58984-0.11719 1.2031 0.046874 1.6602 0.44141 0.45312 0.39453 0.69922 0.98047 0.66797 1.582l-1.6289 29.137c-0.36328 6.5273-3.3086 12.641-8.1797 17-4.875 4.3555-11.277 6.6016-17.805 6.2344-3.9453-0.21875-7.7422-1.3828-11.086-3.3438zm-7.9805-27.234c0.46875-0.1875 0.94141-0.37891 1.4102-0.57813 0.55469-0.23437 1.1875-0.19531 1.7148 0.10156 0.52344 0.29688 0.88281 0.82031 0.97266 1.4141l3.1016 20.992c3.3984 2.8203 7.6289 4.5 12.09 4.7461 5.4922 0.30859 10.883-1.582 14.984-5.2461 4.1016-3.668 6.5781-8.8125 6.8828-14.305l1.4883-26.66c-13.984 2.3789-27.789 1.5781-41.422-2.3203l-1.2227 21.852zm14.617 14.949c-0.95703 0.49609-2.1367 0.125-2.6328-0.83203s-0.125-2.1367 0.83203-2.6328c5.0312-2.6133 9.9062-2.4258 14.609 0.83203 0.88672 0.61328 1.1055 1.832 0.49219 2.7188-0.61328 0.88672-1.832 1.1055-2.7188 0.49219-3.4062-2.3594-6.9414-2.4688-10.586-0.57812zm21.633-22.926c1.0234-0.33984 2.1289 0.21875 2.4688 1.2422 0.33984 1.0234-0.21875 2.1289-1.2422 2.4688-3.1836 1.0547-6.3008 0.91406-9.3438-0.53125-0.97266-0.46094-1.3906-1.6289-0.92578-2.6016 0.46094-0.97266 1.6289-1.3906 2.6016-0.92578 2.0977 0.99609 4.25 1.0781 6.4453 0.35156zm-23.5-1.3125c1.0234-0.33984 2.1289 0.21875 2.4688 1.2422 0.33984 1.0234-0.21875 2.1289-1.2422 2.4688-3.1836 1.0547-6.3008 0.91406-9.3438-0.53125-0.97266-0.46094-1.3906-1.6289-0.92578-2.6016 0.46094-0.97266 1.6289-1.3906 2.6016-0.92578 2.0977 0.99609 4.25 1.0781 6.4453 0.35156zm-14.227 14.031c-12.578 4.5625-25.57 6.3008-38.973 5.2773l3.9023 26.418c0.80469 5.4414 3.7383 10.344 8.1523 13.621 4.418 3.2812 9.957 4.6719 15.398 3.8672 5.4414-0.80469 10.344-3.7383 13.621-8.1523 3.2812-4.418 4.6719-9.957 3.8672-15.398l-3.9023-26.414c-0.67188 0.26172-1.3477 0.51562-2.0234 0.76172-0.015626 0.007812-0.03125 0.011718-0.046876 0.019531zm-30.91 20.59c-0.93359 0.53906-2.1289 0.21484-2.6641-0.71875-0.53906-0.93359-0.21484-2.1289 0.71875-2.668 2.9062-1.6719 5.9883-2.1602 9.2617-1.3594 1.0469 0.25781 1.6875 1.3164 1.4297 2.3594-0.25781 1.0469-1.3164 1.6875-2.3594 1.4297-2.2578-0.55469-4.3789-0.20313-6.3828 0.95312zm23.285-3.4375c-0.93359 0.53906-2.1289 0.21484-2.6641-0.71875-0.53906-0.93359-0.21484-2.1289 0.71875-2.668 2.9062-1.6719 5.9883-2.1602 9.2617-1.3594 1.0469 0.25781 1.6875 1.3164 1.4297 2.3594-0.25781 1.0469-1.3164 1.6875-2.3594 1.4297-2.2578-0.55469-4.3789-0.20313-6.3828 0.95312zm-1.0781 14.727c0.83594-0.67969 2.0664-0.55078 2.7461 0.28516 0.67969 0.83594 0.55078 2.0664-0.28516 2.7461-4.4023 3.5703-9.2148 4.3672-14.48 2.125-0.99219-0.42188-1.4531-1.5703-1.0312-2.5625 0.42188-0.99219 1.5703-1.4531 2.5625-1.0312 3.8125 1.625 7.2969 1.0234 10.488-1.5625z" fill-rule="evenodd"/>
</g>
</svg>